<?xml version="1.0" encoding="UTF-8"?><!DOCTYPE svg PUBLIC "-//W3C//DTD SVG 1.1//EN" "http://www.w3.org/Graphics/SVG/1.1/DTD/svg11.dtd"><svg xmlns="http://www.w3.org/2000/svg" xmlns:xlink="http://www.w3.org/1999/xlink"><symbol id="calendar" viewBox="0 0 448 512"><path d="M336 292v24c0 6.6-5.4 12-12 12h-76v76c0 6.6-5.4 12-12 12h-24c-6.6 0-12-5.4-12-12v-76h-76c-6.6 0-12-5.4-12-12v-24c0-6.6 5.4-12 12-12h76v-76c0-6.6 5.4-12 12-12h24c6.6 0 12 5.4 12 12v76h76c6.6 0 12 5.4 12 12zm112-180v352c0 26.5-21.5 48-48 48H48c-26.5 0-48-21.5-48-48V112c0-26.5 21.5-48 48-48h48V12c0-6.6 5.4-12 12-12h40c6.6 0 12 5.4 12 12v52h128V12c0-6.6 5.4-12 12-12h40c6.6 0 12 5.4 12 12v52h48c26.5 0 48 21.5 48 48zm-48 346V160H48v298c0 3.3 2.7 6 6 6h340c3.3 0 6-2.7 6-6z"/></symbol><symbol id="check" viewBox="0 0 512 512"><path d="M173.898 439.404l-166.4-166.4c-9.997-9.997-9.997-26.206 0-36.204l36.203-36.204c9.997-9.998 26.207-9.998 36.204 0L192 312.69 432.095 72.596c9.997-9.997 26.207-9.997 36.204 0l36.203 36.204c9.997 9.997 9.997 26.206 0 36.204l-294.4 294.401c-9.998 9.997-26.207 9.997-36.204-.001z"/></symbol><symbol id="chevron-down" viewBox="0 0 14 8"><path d="M7 7.9L.7 1.6 2.1.1 7 5 11.9.1l1.4 1.5z" fill="currentColor"/></symbol><symbol id="chevron-left" viewBox="0 0 15 25"><path fill="currentColor" class="st0" d="M15 21.8l-9.3-9.3L15 3.2 12.1.3 0 12.5l12.1 12.1 2.9-2.8z"/></symbol><symbol id="chevron-right" viewBox="0 0 15 25"><path fill="currentColor" class="st0" d="M0 3.2l9.3 9.3L0 21.8l2.9 2.9L15 12.5 2.9.4 0 3.2z"/></symbol><symbol id="close" viewBox="0 0 20 20"><path fill="currentColor" d="M19.9 17.1L12.8 10l7.1-7.1L17.1.1 10 7.2 2.9.1.1 2.9 7.2 10 .1 17.1l2.8 2.8 7.1-7.1 7.1 7.1z"/></symbol><symbol id="com-black" viewBox="0 0 444.6 126.5"><path d="M81.4 93.6l26.2-15.2v30.3l26.2 15.2 26.3-15.2V17.8L133.8 2.7 81.3 32.9 28.9 2.7 2.6 17.8v90.9l26.3 15.2 26.2-15.2V78.4l26.3 15.2zM215.5 68.1H208c-.3 0-.7.2-.7.6l-.9 5.9-4.8 13.3-4.8-13.3-.9-5.9c0-.3-.3-.6-.7-.6h-7.5c-.3 0-.6.3-.6.6v40.8c0 .3.3.6.6.6h5.8c.3 0 .6-.3.6-.6V86.9c1.9 5.3 3.9 10.7 4.3 11.8.1.4.5.6.6.6h5.2c.2 0 .5-.2.6-.6.4-1.1 2.4-6.4 4.3-11.8v22.7c0 .3.3.6.6.6h5.8c.3 0 .6-.3.6-.6V68.8c0-.4-.3-.7-.6-.7zM244.1 68.1h-19.9c-.3 0-.6.3-.6.6v40.8c0 .3.3.6.6.6h19.9c.3 0 .6-.3.6-.6v-5.8c0-.3-.3-.6-.6-.6h-13.4v-12h10.2c.3 0 .6-.3.6-.6v-5.8c0-.3-.3-.6-.6-.6h-10.2v-8.8h13.4c.3 0 .6-.3.6-.6v-5.8c0-.5-.3-.8-.6-.8zM269 103.1h-11.7V68.8c0-.3-.3-.6-.6-.6h-5.8c-.3 0-.6.3-.6.6v40.8c0 .3.3.6.6.6H269c.3 0 .6-.3.6-.6v-5.8c0-.4-.3-.7-.6-.7zM353.1 68.1h-5.8c-.3 0-.6.3-.6.6v32.5c0 1.4-1.2 1.9-2.5 1.9h-2c-1.3 0-2.5-.5-2.5-1.9V68.8c0-.3-.3-.6-.6-.6h-5.8c-.3 0-.6.3-.6.6v34.4c0 3.9 3.1 7 7 7h7.1c3.9 0 7-3.1 7-7V68.8c0-.4-.4-.7-.7-.7zM412.2 68.1h-5.8c-.1 0-.3.1-.5.3 0 0-.1.1-.1.2v16.2l-5.5-10.2-.9-5.9c0-.3-.3-.6-.6-.6h-7.5c-.3 0-.6.3-.6.6v40.8c0 .3.3.6.6.6h5.8c.3 0 .6-.3.6-.6V83.4c2.9 6.3 7.6 13.7 8.2 15.2v11c0 .3.3.6.6.6h5.8c.3 0 .6-.3.6-.6V68.8c-.1-.4-.4-.7-.7-.7zM440.7 75.2c.3 0 .6-.3.6-.6v-5.8c0-.3-.3-.6-.6-.6h-19.9c-.3 0-.6.3-.6.6v40.8c0 .3.3.6.6.6h19.9c.3 0 .6-.3.6-.6v-5.8c0-.3-.3-.6-.6-.6h-13.4v-12h10.2c.3 0 .6-.3.6-.6v-5.8c0-.3-.3-.6-.6-.6h-10.2v-8.8h13.4zM384.8 109.3l-5.6-13.8.5-.4c2.1-1.4 3.3-4.3 3.3-7v-9.5c0-5.9-4.7-10.5-10.6-10.5h-10.7c-.3 0-.6.3-.6.6v40.8c0 .3.3.6.6.6h5.9c.3 0 .6-.3.6-.6V98.7h4.1l4.5 11.1c.1.3.4.4.6.4h6.7c.7 0 .9-.4.7-.9zm-8.9-21.2c0 1.9-1.5 3.6-3.4 3.6h-4.3V75.2h4.2c1.9 0 3.4 1.5 3.4 3.4v9.5zM318.4 68.1h-7.1c-3.8 0-7 3.2-7 7v28.1c0 3.9 3.1 7 7 7h7.1c3.9 0 7-3.1 7-7V75.1c0-3.7-3.2-7-7-7zm-.1 33.1c0 1.4-1.2 1.9-2.5 1.9h-2c-1.3 0-2.5-.5-2.5-1.9V77.1c0-1.5.5-1.9 2-1.9h3c1.5 0 2 .4 2 1.9v24.1zM296.9 80.2V78c0-5.9-4.7-9.9-10.6-9.9h-10.7c-.3 0-.7.3-.7.6v40.8c0 .3.3.6.7.6h10.7c5.9 0 10.6-4.6 10.6-10.5v-5.1c0-2.5-1-5.1-3.4-7 2.6-1.7 3.4-4.8 3.4-7.3zm-7.3 19.5c0 1.9-1.5 3.4-3.4 3.4H282v-12h4.3c1.8 0 3.4 1.7 3.4 3.6v5zm0-18.9c0 1.8-1.6 3.2-3.4 3.2H282v-8.8h4.2c1.9 0 3.4 1.7 3.4 3.6v2z"/><g><path d="M207.5 19H194c-3.7 0-7 3.1-7 7v28c0 4.5 3.7 7 7 7h13.5c.3 0 .6-.3.6-.6v-5.8c0-.3-.3-.6-.6-.6h-10.9c-1.5 0-2.5-.6-2.5-1.9V27.9c0-1.4.4-1.9 2-1.9h11.4c.3 0 .6-.3.6-.6v-5.8c0-.3-.3-.6-.6-.6zM333.6 19h-19.8c-.3 0-.6.3-.6.6v40.8c0 .3.3.6.6.6h5.8c.3 0 .6-.3.6-.6V41.9h10.2c.3 0 .6-.3.6-.6v-5.8c0-.3-.3-.6-.6-.6h-10.2V26h13.4c.3 0 .6-.3.6-.6v-5.8c0-.3-.3-.6-.6-.6zM300.3 19h-7.1c-3.8 0-7 3.2-7 7v28c0 3.9 3.1 7 7 7h7.1c3.9 0 7-3.1 7-7V25.9c0-3.7-3.2-6.9-7-6.9zm-.1 33.1c0 1.4-1.2 1.9-2.5 1.9h-2c-1.3 0-2.5-.5-2.5-1.9V27.9c0-1.5.5-1.9 2-1.9h3c1.5 0 2 .4 2 1.9v24.2zM269.5 19h-6.4c-.3 0-.6.3-.6.6l-.7 6-3.3 13.3-3.3-13.3-.8-6c0-.3-.3-.6-.7-.6h-6.4c-.4 0-.6.3-.6.7.4 3.4.7 6.2 1.8 10.3 1.8 6.4 5.8 18.6 6.4 20.2v10.2c0 .3.3.6.6.6h5.8c.3 0 .6-.3.6-.6V50.2c.6-1.7 4.7-13.5 6.3-20.1 1.2-4.8 1.3-6.1 1.9-10.4.1-.4-.2-.7-.6-.7zM242.6 19h-18.1c-.3 0-.6.3-.6.6v5.8c0 .3.3.6.6.6h5.6v34.3c0 .3.3.6.6.6h5.8c.3 0 .6-.3.6-.6V26h5.5c.3 0 .6-.3.6-.6v-5.8c0-.3-.3-.6-.6-.6zM219.4 19h-5.8c-.3 0-.6.3-.6.6v40.8c0 .3.3.6.6.6h5.8c.3 0 .6-.3.6-.6V19.6c0-.3-.3-.6-.6-.6z"/></g></symbol><symbol id="com-inline" viewBox="0 0 182 25"><path class="st0" fill="#fff" d="M26.5 0L15.9 6.1 5.3 0 0 3v18.3l5.3 3.1 5.3-3.1v-6.1l5.3 3 5.3-3v6.1l5.3 3 5.3-3.1V3.1L26.5 0z"/><g fill="#fff"><path class="st0" d="M107.5 5H105c-.1 0-.2.1-.2.2l-.3 2-1.6 4.4-1.6-4.4-.3-2c0-.1-.1-.2-.2-.2h-2.5c-.2 0-.3.1-.3.2v13.6c0 .1.1.2.2.2h1.9c.1 0 .2-.1.2-.2v-7.5c.6 1.8 1.3 3.6 1.4 3.9 0 .1.1.2.2.2h1.7c.1 0 .2-.1.2-.2.1-.4.8-2.1 1.4-3.9v7.6c0 .1.1.2.2.2h1.9c.1 0 .2-.1.2-.2V5.2c.2-.1.1-.2 0-.2M116.8 5h-6.6c-.1 0-.2.1-.2.2v13.6c0 .1.1.2.2.2h6.6c.1 0 .2-.1.2-.2v-1.9c0-.1-.1-.2-.2-.2h-4.5v-4h3.4c.1 0 .2-.1.2-.2v-2c0-.1-.1-.2-.2-.2h-3.4V7.4h4.5c.1 0 .2-.1.2-.2v-2c.1-.1 0-.2-.2-.2M125.3 16.7h-3.9V5.2c0-.1-.1-.2-.2-.2h-1.9c-.2 0-.3.1-.3.2v13.6c0 .1.1.2.2.2h6.1c.1 0 .2-.1.2-.2v-1.9c0-.1-.1-.2-.2-.2M152.8 5h-1.9c-.1 0-.2.1-.2.2V16c0 .5-.4.6-.8.6h-.7c-.4 0-.8-.2-.8-.6V5.2c0-.1-.1-.2-.2-.2h-1.9c-.1 0-.2.1-.2.2v11.5c0 1.3 1 2.3 2.3 2.3h2.4c1.3 0 2.3-1 2.3-2.3V5.2c0-.1-.1-.2-.3-.2M172.2 5h-2c-.1 0-.1 0-.2.1v5.5l-1.8-3.4-.3-2c0-.1-.1-.2-.2-.2h-2.5c-.1 0-.2.1-.2.2v13.6c0 .1.1.2.2.2h1.9c.1 0 .2-.1.2-.2v-8.7c1 2.1 2.5 4.6 2.7 5.1v3.7c0 .1.1.2.2.2h1.9c.1 0 .2-.1.2-.2V5.2c.1-.1.1-.2-.1-.2M181.8 7.4c.1 0 .2-.1.2-.2v-2c0-.1-.1-.2-.2-.2h-6.6c-.1 0-.2.1-.2.2v13.6c0 .1.1.2.2.2h6.6c.1 0 .2-.1.2-.2v-1.9c0-.1-.1-.2-.2-.2h-4.5v-4h3.4c.1 0 .2-.1.2-.2v-2c0-.1-.1-.2-.2-.2h-3.4V7.4h4.5zM163.7 19h-2.2c-.1 0-.2 0-.2-.1l-1.5-3.7h-1.4v3.6c0 .1-.1.2-.2.2h-2c-.1 0-.2-.1-.2-.2V5.2c0-.1.1-.2.2-.2h3.6c.9 0 1.8.4 2.5 1 .7.7 1 1.5 1 2.5v3.2c0 .9-.4 1.8-1.1 2.3l-.2.1 1.9 4.6v.2c-.1.1-.1.1-.2.1zm-5.3-11.6v5.5h1.4c.6 0 1.1-.6 1.1-1.2V8.5c0-.6-.5-1.1-1.1-1.1h-1.4zM141.7 19h-2.4c-1.3 0-2.3-1-2.3-2.3V7.3c0-1.2 1.1-2.3 2.3-2.3h2.4c1.3 0 2.3 1.1 2.3 2.3v9.4c.1 1.3-1 2.3-2.3 2.3zM140 7.4c-.5 0-.7.2-.7.6v8c0 .4.3.6.8.6h.7c.5 0 .8-.2.8-.6V8c0-.5-.2-.6-.7-.6h-.9zM130.8 19h-3.6c-.1 0-.2-.1-.2-.2V5.2c0-.1.1-.2.2-.2h3.6c1.8-.1 3.4 1.3 3.5 3.2V9c.1 1-.4 1.9-1.2 2.5.7.6 1.2 1.4 1.2 2.3v1.7c0 .9-.4 1.8-1 2.5-.7.7-1.6 1-2.5 1zm-1.4-6.3v4h1.4c.6 0 1.1-.5 1.1-1.1v-1.8c0-.6-.5-1.2-1.1-1.2l-1.4.1zm0-5.3v2.9h1.4c.6 0 1.1-.5 1.2-1.1v-.7c0-.6-.5-1.2-1.2-1.2l-1.4.1zM49.8 5h-4.5C44.1 5 43 6 43 7.3v9.4c0 1.3 1 2.3 2.3 2.3h4.5c.1 0 .2-.1.2-.2v-1.9c0-.1-.1-.2-.2-.2h-3.6c-.5 0-.8-.2-.8-.6V8c0-.5.1-.6.7-.6h3.8c.1 0 .2-.1.2-.2v-2c0-.1-.1-.2-.3-.2M91.8 5h-6.6c-.1 0-.2.1-.2.2v13.6c0 .1.1.2.2.2h1.9c.1 0 .2-.1.2-.2v-6.2h3.4c.1 0 .2-.1.2-.2v-1.9c0-.1-.1-.2-.2-.2h-3.4v-3h4.5c.1 0 .2-.1.2-.2V5.2c0-.1-.1-.2-.2-.2M80.7 19h-2.4C77 19 76 18 76 16.7V7.3c0-.6.3-1.2.7-1.6s1-.7 1.6-.7h2.4C82 5 83 6.1 83 7.3v9.4c0 1.3-1 2.3-2.3 2.3zM79 7.3c-.5 0-.7.2-.7.6V16c0 .4.3.6.8.6h.7c.5 0 .8-.2.8-.6V8c0-.5-.2-.6-.7-.6H79v-.1zM69.7 5h-2.2c-.1 0-.2.1-.2.2l-.2 2-1.1 4.4-1.1-4.4-.3-2c0-.1-.1-.2-.2-.2h-2.1c-.2 0-.3.1-.3.2.1 1.2.3 2.3.6 3.4.6 2.1 1.9 6.2 2.1 6.7v3.4c0 .1.1.2.2.2h1.9c.1 0 .2-.1.2-.2v-3.4c.2-.6 1.6-4.5 2.1-6.7.3-1.1.5-2.3.6-3.6.2.1.1 0 0 0M61.3 5h-6.1c-.1 0-.2.1-.2.2v1.9c0 .1.1.2.2.2h1.9v11.4c0 .1.1.2.2.2h1.9c.1 0 .2-.1.2-.2V7.4h1.8c.1 0 .2-.1.2-.2v-2c.1-.1 0-.2-.1-.2M53.2 5h-2c-.1 0-.2.1-.2.2v13.6c0 .1.1.2.2.2h1.9c.1 0 .2-.1.2-.2V5.2c.1-.1 0-.2-.1-.2"/></g></symbol><symbol id="com-m" viewBox="0 0 444.6 126.5"><path d="M81.4 93.6l26.2-15.2v30.3l26.2 15.2 26.3-15.2V17.8L133.8 2.7 81.3 32.9 28.9 2.7 2.6 17.8v90.9l26.3 15.2 26.2-15.2V78.4l26.3 15.2z"/></symbol><symbol id="download" viewBox="0 0 16 16"><path fill="currentColor" d="M15 7c-.6 0-1 .4-1 1v6H2V8c0-.6-.4-1-1-1s-1 .4-1 1v7c0 .6.4 1 1 1h14c.6 0 1-.4 1-1V8c0-.6-.4-1-1-1zM9 7V.9C9 .4 8.6 0 8 0S7 .4 7 .9V7H4l4 4 4-4H9z"/></symbol><symbol id="envelope" viewBox="0 0 16 16"><path fill="currentColor" d="M15.8 6.5l-2.2-1.6V1.3c0-.2-.2-.4-.4-.4H2.8c-.2 0-.4.2-.4.4v3.6L.2 6.5c-.1.1-.1.2-.1.3v7.9c0 .2.2.4.4.4h15.1c.2 0 .4-.2.4-.4V6.8c-.1-.1-.1-.2-.2-.3zm-2.3-.7l1.3 1-1.3.8V5.8zM3.2 1.7h9.5v6.4l-4.8 3-4.8-3V1.7zm-.8 4.1v1.7l-1.2-.7 1.2-1zM.9 7.5l3.8 2.4-3.8 3.8V7.5zm.5 6.8l3.9-4 2.4 1.5c.1.1.3.1.4 0l2.4-1.5 3.9 4h-13zm13.7-.5L11.3 10l3.8-2.4v6.2z"/></symbol><symbol id="facebook" viewBox="0 0 16 16"><path fill="currentColor" d="M11.8.6V3h-1.4c-1.1 0-1.3.5-1.3 1.2v1.7h2.6l-.4 2.7H9.1v6.8H6.3V8.6H4V5.9h2.3V4C6.1 2.2 7.4.8 9.2.6h2.6z"/></symbol><symbol id="instagram" viewBox="0 0 16 16"><path fill="currentColor" d="M8.7 15H5.1C4 15 3 14.6 2.2 13.8S1 12 1 10.9V7.6 5.1C1 4 1.4 3 2.2 2.2S4 1 5.1 1H11c1 0 2 .4 2.8 1.2S15 4 15 5.1v5.7c0 1.1-.4 2.1-1.1 2.9-.9.9-1.9 1.3-3 1.3H8.7zM8 13.7H9.2c1 0 2-.1 2.9-.3.6-.2 1.1-.7 1.3-1.3.3-1.2.4-2.4.3-3.6v-.1V8v-.5c.1-1.2 0-2.4-.3-3.6-.2-.6-.7-1.1-1.3-1.3-.9-.2-1.9-.3-2.9-.3H6.8c-1 0-2 .1-2.9.3-.3.1-.6.2-.8.5-.3.2-.4.5-.6.8-.2 1.2-.3 2.4-.2 3.6v.9c-.1 1.2 0 2.4.3 3.6.2.6.7 1.1 1.3 1.3 1 .2 1.9.3 2.9.3h.8l.4.1zm0-2.1C6 11.6 4.4 10 4.4 8S6 4.4 8 4.4 11.6 6 11.6 8 10 11.6 8 11.6zm0-5.9c-1.3 0-2.3 1-2.3 2.3s1 2.3 2.3 2.3 2.3-1 2.3-2.3c0-1.3-1-2.3-2.3-2.3zm3.7-.6c-.5 0-.8-.4-.8-.8 0-.5.4-.8.8-.8.5 0 .8.4.8.8.1.4-.3.8-.8.8z"/></symbol><symbol id="link" viewBox="0 0 512 512"><path fill="currentColor" d="M326.612 185.391c59.747 59.809 58.927 155.698.36 214.59-.11.12-.24.25-.36.37l-67.2 67.2c-59.27 59.27-155.699 59.262-214.96 0-59.27-59.26-59.27-155.7 0-214.96l37.106-37.106c9.84-9.84 26.786-3.3 27.294 10.606.648 17.722 3.826 35.527 9.69 52.721 1.986 5.822.567 12.262-3.783 16.612l-13.087 13.087c-28.026 28.026-28.905 73.66-1.155 101.96 28.024 28.579 74.086 28.749 102.325.51l67.2-67.19c28.191-28.191 28.073-73.757 0-101.83-3.701-3.694-7.429-6.564-10.341-8.569a16.037 16.037 0 0 1-6.947-12.606c-.396-10.567 3.348-21.456 11.698-29.806l21.054-21.055c5.521-5.521 14.182-6.199 20.584-1.731a152.482 152.482 0 0 1 20.522 17.197zM467.547 44.449c-59.261-59.262-155.69-59.27-214.96 0l-67.2 67.2c-.12.12-.25.25-.36.37-58.566 58.892-59.387 154.781.36 214.59a152.454 152.454 0 0 0 20.521 17.196c6.402 4.468 15.064 3.789 20.584-1.731l21.054-21.055c8.35-8.35 12.094-19.239 11.698-29.806a16.037 16.037 0 0 0-6.947-12.606c-2.912-2.005-6.64-4.875-10.341-8.569-28.073-28.073-28.191-73.639 0-101.83l67.2-67.19c28.239-28.239 74.3-28.069 102.325.51 27.75 28.3 26.872 73.934-1.155 101.96l-13.087 13.087c-4.35 4.35-5.769 10.79-3.783 16.612 5.864 17.194 9.042 34.999 9.69 52.721.509 13.906 17.454 20.446 27.294 10.606l37.106-37.106c59.271-59.259 59.271-155.699.001-214.959z"/></symbol><symbol id="map" viewBox="0 0 384 512"><path d="M172.268 501.67C26.97 291.031 0 269.413 0 192 0 85.961 85.961 0 192 0s192 85.961 192 192c0 77.413-26.97 99.031-172.268 309.67-9.535 13.774-29.93 13.773-39.464 0zM192 272c44.183 0 80-35.817 80-80s-35.817-80-80-80-80 35.817-80 80 35.817 80 80 80z"/></symbol><symbol id="menu" viewBox="0 0 448 512"><path d="M16 132h416c8.837 0 16-7.163 16-16V76c0-8.837-7.163-16-16-16H16C7.163 60 0 67.163 0 76v40c0 8.837 7.163 16 16 16zm0 160h416c8.837 0 16-7.163 16-16v-40c0-8.837-7.163-16-16-16H16c-8.837 0-16 7.163-16 16v40c0 8.837 7.163 16 16 16zm0 160h416c8.837 0 16-7.163 16-16v-40c0-8.837-7.163-16-16-16H16c-8.837 0-16 7.163-16 16v40c0 8.837 7.163 16 16 16z"/></symbol><symbol id="mfw-logo-full" viewBox="0 0 160 60"><g fill="currentColor"><path d="M63.3 3.9v29.4h6.8V21.8h11.2v-5.5H70.1V9.6h14V3.9H63.3zm52.6 19.8l-5-19.8h-6.3l-4.8 19.8h-.1L95.2 3.9h-7l7.6 29.4h6.7l4.6-19.4h.1l4.8 19.4h6.8l7.4-29.4h-5.7l-4.6 19.8zM36.41 33.346L57.502 2.704l1.565 1.077-21.092 30.642zM31.9 3.9h-8.7l-7.5 14.4L7.9 3.9H0v29.4h6.5V12.6l7.2 14.5h3.9l7.3-14.5v20.7h7z"/></g><g fill="#757575"><path class="st0" d="M0 54.6l2.1-2c.9 1 1.9 1.6 3.3 1.6 1.1 0 1.9-.6 1.9-1.6 0-1.1-1-1.7-2.7-1.7H3.4L2.9 49l3.2-3.3H.8v-2.6H10v2.3l-3.4 3.3c1.8.3 3.6 1.3 3.6 3.8 0 2.6-1.9 4.4-4.9 4.4-2.4.1-4.1-.9-5.3-2.3zM14.8 46.1l-2.4.6-.6-2.4 3.9-1.2h2v13.7h-3l.1-10.7zM31.6 43.1h2.8l5.8 13.7h-3.1l-1.2-3h-5.7l-1.2 3h-3l5.6-13.7zm3.1 8l-1.8-4.4-1.8 4.4h3.6zM41.6 50.9v-7.8h3v7.7c0 2.2 1.1 3.4 2.9 3.4s2.9-1.1 2.9-3.3v-7.8h3v7.7c0 4.1-2.3 6.1-6 6.1-3.6.1-5.8-2-5.8-6zM55.8 50c0-3.9 3-7.1 7.1-7.1 2.4 0 3.9.7 5.3 1.9l-1.9 2.3c-1-.9-2-1.4-3.6-1.4-2.2 0-3.9 1.9-3.9 4.2 0 2.5 1.7 4.3 4.1 4.3 1.1 0 2.1-.3 2.8-.8v-1.9h-3v-2.6h5.9v5.9C67.4 56 65.5 57 63 57c-4.2 0-7.2-3-7.2-7zM76.8 49.4h8.3v2.8h-8.3v-2.8zM99.6 45.8h-6.4v-2.6h9.8v2.3l-6.1 11.3h-3.4l6.1-11zM110.4 54.8l1.8-2.1c1.2 1 2.5 1.6 4.1 1.6 1.2 0 2-.5 2-1.3s-.5-1.1-2.7-1.7c-2.7-.7-4.5-1.5-4.5-4.2 0-2.5 2-4.1 4.7-4.1 2 0 3.7.6 5 1.7l-1.5 2.3c-1.2-.8-2.4-1.3-3.5-1.3s-1.7.5-1.7 1.2c0 .9.6 1.2 2.9 1.8 2.8.7 4.3 1.7 4.3 4.1 0 2.7-2.1 4.2-5 4.2-2.2 0-4.3-.8-5.9-2.2zM123.8 43.2H134v2.7h-7.3v2.8h6.4v2.7h-6.4v2.9h7.4V57h-10.3V43.2zM136.8 43.2h5.5c3.2 0 5.2 1.9 5.2 4.7 0 3.1-2.4 4.8-5.5 4.8h-2.3v4.1h-3l.1-13.6zm5.3 6.8c1.5 0 2.4-.9 2.4-2.1 0-1.3-.9-2.1-2.4-2.1h-2.3V50h2.3zM152.9 45.9h-4.1v-2.8H160v2.8h-4.1v10.8h-3V45.9z"/></g></symbol><symbol id="mfw-logo" viewBox="0 0 132 32"><g fill="currentColor"><path d="M125.4.7L121 19.9l-.3 1.3h-.1L115.5.6h-6.6l-5 20.6h-.1l-.4-1.5-4.3-19h-7.3l7.9 30.5h6.9l4.8-20.2h.1l5 20.2h7L131.2.7h-5.8zM66 .7v30.5h7.1V19.3h11.6v-5.7H73.1V6.7h14.6V.8H66V.7zM38.91 30.058L59.404-.022l1.652 1.125-20.493 30.081zM32 1.2h-8.8l-7.5 14.5L7.9 1.2H0v29.5h6.5V10l7.3 14.5h3.8L25 10v20.7h7V1.2z"/></g></symbol><symbol id="minus" viewBox="0 0 19 19"><path d="M0 8h19v3H0z" fill="currentColor"/></symbol><symbol id="pause" viewBox="0 0 14 18"><g fill="currentColor"><path d="M.4.4h5.2v17.2H.4zM8.4.4h5.2v17.2H8.4z"/></g></symbol><symbol id="play" viewBox="0 0 16 18"><path fill="currentColor" d="M15.4 9L8 13.3.6 17.6V.4L8 4.7 15.4 9z"/></symbol><symbol id="plus" viewBox="0 0 19 19"><path fill="currentColor" d="M19 8h-8V0H8v8H0v3h8v8h3v-8h8z"/></symbol><symbol id="reset" viewBox="0 0 512 512"><path fill="currentColor" d="M255.545 8c-66.269.119-126.438 26.233-170.86 68.685L48.971 40.971C33.851 25.851 8 36.559 8 57.941V192c0 13.255 10.745 24 24 24h134.059c21.382 0 32.09-25.851 16.971-40.971l-41.75-41.75c30.864-28.899 70.801-44.907 113.23-45.273 92.398-.798 170.283 73.977 169.484 169.442C423.236 348.009 349.816 424 256 424c-41.127 0-79.997-14.678-110.63-41.556-4.743-4.161-11.906-3.908-16.368.553L89.34 422.659c-4.872 4.872-4.631 12.815.482 17.433C133.798 479.813 192.074 504 256 504c136.966 0 247.999-111.033 248-247.998C504.001 119.193 392.354 7.755 255.545 8z"/></symbol><symbol id="search" viewBox="0 0 22 22"><path fill="currentColor" d="M21.5 19.3L16 13.8c1-1.4 1.5-3 1.5-4.9C17.5 4.2 13.7.4 9 .4S.5 4.3.5 9s3.8 8.5 8.5 8.5c1.8 0 3.4-.5 4.8-1.5l5.6 5.5 2.1-2.2zM3.6 9C3.6 6 6 3.6 9 3.6c3 0 5.4 2.4 5.4 5.4 0 3-2.4 5.4-5.4 5.4-3 0-5.4-2.4-5.4-5.4z"/></symbol><symbol id="square" viewBox="0 0 448 512"><path d="M400 32H48C21.5 32 0 53.5 0 80v352c0 26.5 21.5 48 48 48h352c26.5 0 48-21.5 48-48V80c0-26.5-21.5-48-48-48z"/></symbol><symbol id="twitter" viewBox="0 0 512 512"><path fill="currentColor" d="M459.37 151.716c.325 4.548.325 9.097.325 13.645 0 138.72-105.583 298.558-298.558 298.558-59.452 0-114.68-17.219-161.137-47.106 8.447.974 16.568 1.299 25.34 1.299 49.055 0 94.213-16.568 130.274-44.832-46.132-.975-84.792-31.188-98.112-72.772 6.498.974 12.995 1.624 19.818 1.624 9.421 0 18.843-1.3 27.614-3.573-48.081-9.747-84.143-51.98-84.143-102.985v-1.299c13.969 7.797 30.214 12.67 47.431 13.319-28.264-18.843-46.781-51.005-46.781-87.391 0-19.492 5.197-37.36 14.294-52.954 51.655 63.675 129.3 105.258 216.365 109.807-1.624-7.797-2.599-15.918-2.599-24.04 0-57.828 46.782-104.934 104.934-104.934 30.213 0 57.502 12.67 76.67 33.137 23.715-4.548 46.456-13.32 66.599-25.34-7.798 24.366-24.366 44.833-46.132 57.827 21.117-2.273 41.584-8.122 60.426-16.243-14.292 20.791-32.161 39.308-52.628 54.253z"/></symbol></svg>